<?xml version="1.0" encoding="UTF-8" standalone="no"?>
<svg xmlns="http://www.w3.org/2000/svg" xmlns:xlink="http://www.w3.org/1999/xlink" style="isolation:isolate" viewBox="973.54 1153.081 63.354 69.951" width="63.354pt" height="69.951pt"><path d=" M 1018.359 1169.94 L 1017.626 1171.197 L 1016.998 1172.349 L 1017.521 1172.558 L 1017.416 1172.663 L 1017.416 1172.977 L 1017.416 1173.187 L 1017.207 1174.024 L 1017.207 1174.338 Q 1017.521 1174.653 1018.045 1174.757 Q 1022.233 1176.537 1025.48 1173.71 L 1027.05 1172.558 L 1031.448 1167.951 L 1031.658 1167.951 L 1032.391 1168.579 L 1033.857 1170.569 Q 1036.894 1175.595 1036.894 1181.564 L 1036.789 1185.438 Q 1036.58 1188.475 1035.323 1191.302 L 1034.066 1194.235 L 1031.972 1198.737 L 1029.668 1202.402 L 1025.48 1207.324 L 1021.919 1210.047 L 1016.893 1213.293 Q 1012.914 1215.492 1008.516 1214.864 L 1006.002 1214.968 L 1004.955 1214.445 L 1005.06 1214.34 L 1005.165 1213.921 L 1005.688 1212.246 L 1006.84 1205.23 Q 1006.945 1203.345 1006.212 1202.193 L 1002.966 1199.052 L 1001.918 1199.261 L 988.096 1223.032 L 977.834 1223.032 L 993.75 1195.491 L 994.065 1194.025 L 993.855 1193.816 L 993.436 1193.502 Q 989.038 1191.093 984.954 1194.653 L 982.127 1197.062 L 978.671 1200.936 L 978.252 1200.518 L 977.205 1199.261 Q 973.959 1193.711 973.54 1187.323 L 973.854 1183.449 L 974.587 1179.993 L 975.425 1176.747 L 977.938 1170.883 L 981.289 1165.752 L 985.373 1160.621 Q 987.467 1158.107 990.4 1156.537 L 996.683 1153.5 L 999.51 1153.29 L 1002.337 1153.081 L 1005.688 1153.5 L 1005.479 1154.023 L 1005.479 1154.128 L 1003.908 1161.563 Q 1003.699 1163.448 1004.327 1165.228 Q 1005.269 1167.532 1007.573 1168.893 L 1007.887 1169.103 L 1008.201 1168.684 L 1008.934 1168.16 L 1011.343 1165.333 L 1011.762 1165.019 L 1014.17 1165.752 L 1016.893 1167.322 L 1018.673 1168.893 L 1018.359 1169.94 Z " fill="rgb(0,0,0)"/></svg>
