<?xml version="1.0" encoding="UTF-8" standalone="no"?>
<svg xmlns="http://www.w3.org/2000/svg" xmlns:xlink="http://www.w3.org/1999/xlink" style="isolation:isolate" viewBox="335.116 1156.118 59.898 63.877" width="59.898pt" height="63.877pt"><path d=" M 393.234 1185.124 L 390.407 1212.56 Q 389.36 1215.806 386.846 1216.749 L 379.307 1218.005 Q 372.396 1197.69 349.672 1195.701 Q 351.557 1186.486 353.442 1180.203 Q 359.515 1186.171 380.878 1186.171 L 393.234 1185.124 L 393.234 1185.124 L 393.234 1185.124 Z  M 395.014 1173.396 L 394.491 1178.003 L 393.758 1180.098 L 392.711 1181.878 Q 371.244 1188.58 354.175 1177.061 L 358.573 1156.118 L 366.113 1157.898 Q 378.574 1161.563 386.742 1172.035 L 394.91 1170.778 L 395.014 1173.396 L 395.014 1173.396 L 395.014 1173.396 Z  M 376.794 1218.424 L 362.133 1219.89 L 362.029 1219.89 L 350.824 1219.995 L 348.415 1219.785 L 348.311 1219.785 L 348.101 1219.681 L 347.892 1219.681 L 341.295 1219.052 Q 338.049 1218.424 335.954 1216.853 L 335.116 1215.911 L 335.116 1214.864 Q 341.923 1198.319 351.138 1198.319 Q 359.62 1198.319 366.531 1204.183 Q 372.605 1209.418 376.794 1218.424 L 376.794 1218.424 Z " fill-rule="evenodd" fill="rgb(0,0,0)"/></svg>
