<?xml version="1.0" encoding="UTF-8" standalone="no"?>
<svg xmlns="http://www.w3.org/2000/svg" xmlns:xlink="http://www.w3.org/1999/xlink" style="isolation:isolate" viewBox="1234.424 1156.118 67.856 69.008" width="67.856pt" height="69.008pt"><path d=" M 1289.087 1160.202 L 1289.401 1160.306 Q 1289.296 1162.505 1288.458 1164.495 Q 1275.578 1160.935 1268.876 1163.657 L 1268.667 1163.657 Q 1263.745 1165.542 1263.85 1171.93 L 1263.64 1172.244 L 1262.593 1174.443 L 1259.033 1177.27 L 1257.253 1175.281 L 1255.682 1173.92 Q 1260.29 1171.616 1258.823 1164.809 L 1258.928 1164.39 Q 1263.012 1157.374 1273.274 1157.06 L 1289.087 1160.202 L 1289.087 1160.202 Z  M 1291.181 1158.631 L 1292.228 1158.631 L 1292.752 1159.155 L 1292.752 1159.469 L 1283.327 1193.92 L 1282.385 1192.873 L 1281.966 1192.664 L 1290.029 1164.495 L 1290.448 1161.772 L 1290.238 1158.84 L 1290.448 1158.631 L 1291.181 1158.631 L 1291.181 1158.631 Z  M 1297.464 1156.432 L 1297.569 1156.118 Q 1300.501 1156.955 1301.548 1158.631 L 1301.653 1158.631 L 1301.862 1158.945 L 1302.176 1159.469 L 1302.281 1159.678 L 1302.281 1160.097 L 1302.176 1160.411 L 1302.071 1160.516 Q 1298.511 1164.286 1292.542 1164.704 L 1292.856 1164.076 L 1293.799 1161.563 L 1294.113 1159.888 Q 1296.626 1158.736 1297.464 1156.432 L 1297.464 1156.432 Z  M 1278.824 1191.826 L 1279.243 1191.931 L 1285.212 1197.376 L 1285.212 1197.585 L 1278.301 1198.319 L 1276.416 1198.633 L 1276.206 1200.203 Q 1275.578 1204.706 1275.683 1207.429 L 1275.473 1207.429 L 1269.819 1201.46 L 1269.923 1201.251 L 1270.238 1194.549 L 1250.027 1174.862 Q 1248.561 1174.862 1247.933 1176.119 L 1247.828 1176.328 L 1247.305 1176.956 L 1247.095 1177.48 L 1246.99 1177.48 Q 1244.582 1173.605 1243.744 1169.417 L 1243.116 1166.066 L 1243.011 1165.961 L 1243.116 1165.856 L 1243.221 1165.856 L 1243.221 1165.961 L 1243.325 1165.961 L 1246.781 1166.38 Q 1250.656 1167.218 1254.74 1169.521 L 1253.797 1170.15 Q 1252.645 1170.778 1252.331 1172.558 L 1252.54 1172.872 L 1272.332 1192.35 L 1278.824 1191.826 L 1278.824 1191.826 Z  M 1271.808 1205.544 L 1237.671 1215.702 Q 1237.461 1215.492 1237.357 1215.597 L 1236.938 1214.968 L 1236.728 1214.131 L 1237.042 1213.293 L 1237.042 1213.084 L 1239.87 1213.293 L 1242.906 1212.769 L 1270.552 1204.287 L 1270.761 1204.392 L 1271.808 1205.544 L 1271.808 1205.544 Z  M 1242.278 1181.669 Q 1249.294 1182.925 1251.389 1178.318 L 1252.855 1179.784 L 1254.844 1181.669 L 1251.493 1185.648 L 1249.085 1186.486 Q 1243.116 1186.59 1241.336 1191.407 L 1241.231 1191.617 Q 1238.823 1198.423 1242.592 1211.199 L 1238.404 1212.141 L 1238.299 1212.141 L 1234.739 1196.224 L 1234.843 1196.119 Q 1234.948 1185.962 1241.755 1181.669 L 1242.278 1181.669 L 1242.278 1181.669 Z  M 1237.985 1217.167 L 1239.765 1216.644 L 1242.173 1215.806 L 1242.906 1215.387 Q 1242.592 1221.356 1239.032 1224.812 L 1238.613 1224.916 L 1238.508 1225.126 L 1238.09 1225.021 L 1237.88 1225.126 L 1237.357 1224.707 L 1236.938 1224.602 L 1236.833 1224.498 Q 1235.262 1223.346 1234.424 1220.518 L 1234.739 1220.414 Q 1236.938 1219.471 1237.985 1217.167 L 1237.985 1217.167 Z " fill-rule="evenodd" fill="rgb(0,0,0)"/></svg>
