<?xml version="1.0" encoding="UTF-8" standalone="no"?>
<svg xmlns="http://www.w3.org/2000/svg" xmlns:xlink="http://www.w3.org/1999/xlink" style="isolation:isolate" viewBox="588.058 1154.622 66.135 66.868" width="66.135pt" height="66.868pt"><path d=" M 626.549 1162.535 Q 629.481 1165.886 629.795 1167.352 L 630.004 1167.77 L 630.004 1168.189 L 628.957 1172.797 Q 626.549 1180.022 619.951 1186.724 Q 613.354 1193.217 606.234 1195.52 L 601.207 1196.777 L 600.893 1196.672 L 600.788 1196.672 L 600.369 1196.463 L 595.657 1193.426 L 595.238 1192.588 L 601.521 1191.96 Q 609.584 1190.075 616.496 1183.269 Q 623.407 1176.252 625.397 1168.085 Q 626.234 1164.734 625.816 1162.116 L 626.549 1162.535 L 626.549 1162.535 L 626.549 1162.535 L 626.549 1162.535 Z  M 630.423 1173.216 L 631.156 1170.388 Q 635.554 1177.404 643.932 1182.117 L 643.932 1182.221 L 643.408 1187.771 Q 642.151 1195.835 635.554 1202.432 Q 629.062 1208.819 621.103 1210.076 L 616.182 1210.39 L 615.763 1210.285 Q 610.422 1202.013 603.511 1197.929 L 606.757 1196.986 Q 614.192 1194.683 621.103 1187.876 Q 628.015 1180.86 630.423 1173.32 L 630.423 1173.216 L 630.423 1173.216 L 630.423 1173.216 L 630.423 1173.216 Z  M 645.398 1183.373 L 654.194 1189.866 L 654.194 1213.218 Q 653.984 1220.548 647.387 1221.49 L 647.178 1221.49 L 645.293 1221.385 L 624.035 1221.385 L 617.333 1212.066 L 621.417 1211.647 Q 629.899 1210.285 636.706 1203.584 Q 643.617 1196.463 644.979 1187.981 L 645.398 1183.373 L 645.398 1183.373 L 645.398 1183.373 Z  M 617.752 1159.184 L 617.752 1159.079 Q 615.239 1156.566 610.003 1158.346 Q 604.244 1160.126 598.799 1165.571 Q 593.353 1171.017 591.573 1176.776 Q 589.793 1181.907 592.201 1184.63 L 592.306 1184.63 Q 594.924 1187.038 600.055 1185.363 Q 605.815 1183.478 611.26 1178.033 Q 616.705 1172.587 618.59 1166.828 Q 620.266 1161.592 617.752 1159.184 L 617.752 1159.184 L 617.752 1159.184 Z  M 623.931 1160.754 L 624.035 1161.069 L 624.14 1161.487 Q 624.664 1164.21 623.826 1167.666 L 623.826 1167.77 Q 621.941 1175.415 615.344 1182.117 Q 608.747 1188.609 601.207 1190.389 L 601.102 1190.389 L 594.715 1190.913 L 594.819 1190.913 L 594.086 1190.808 L 593.668 1190.599 L 591.259 1189.447 L 591.05 1189.237 L 590.526 1188.714 L 590.212 1188.4 L 590.107 1188.295 Q 586.966 1184.42 588.641 1177.719 Q 590.526 1170.284 597.018 1163.791 Q 603.616 1157.194 611.155 1155.204 Q 617.962 1153.424 621.836 1157.089 L 621.836 1156.985 L 622.779 1158.032 L 623.931 1160.65 L 623.931 1160.754 L 623.931 1160.754 L 623.931 1160.754 Z " fill-rule="evenodd" fill="rgb(0,0,0)"/></svg>
