<?xml version="1.0" encoding="UTF-8" standalone="no"?>
<svg
   ffdec:objectType="frame"
   height="80.737"
   width="79.551628"
   version="1.1"
   id="svg2"
   sodipodi:docname="1.svg"
   inkscape:version="1.4 (e7c3feb100, 2024-10-09)"
   xmlns:inkscape="http://www.inkscape.org/namespaces/inkscape"
   xmlns:sodipodi="http://sodipodi.sourceforge.net/DTD/sodipodi-0.dtd"
   xmlns="http://www.w3.org/2000/svg"
   xmlns:svg="http://www.w3.org/2000/svg"
   xmlns:ffdec="https://www.free-decompiler.com/flash">
  <sodipodi:namedview
     id="namedview2"
     pagecolor="#ffffff"
     bordercolor="#000000"
     borderopacity="0.25"
     inkscape:showpageshadow="2"
     inkscape:pageopacity="0.0"
     inkscape:pagecheckerboard="0"
     inkscape:deskcolor="#d1d1d1"
     inkscape:zoom="4"
     inkscape:cx="53.75"
     inkscape:cy="54.5"
     inkscape:window-width="1920"
     inkscape:window-height="1011"
     inkscape:window-x="0"
     inkscape:window-y="0"
     inkscape:window-maximized="1"
     inkscape:current-layer="svg2" />
  <path
     d="m 30.161131,36.74653 q -9.482976,0 -14.883004,9.351268 -3.424408,6.190275 -5.136612,17.517163 Q 5.6634437,59.663721 2.7658679,52.288073 0,45.175842 0,38.195318 0,21.073279 12.248843,10.009808 17.648871,5.1366117 24.234271,2.5024519 30.81967,0 37.141654,0 45.30755,0 51.761241,2.2390359 l 5.136612,2.3707439 q 4.478072,2.7658678 6.848816,6.7171072 2.239036,3.556116 2.239036,6.980524 l -0.526832,7.639064 -2.239036,6.190275 q -1.843912,3.160992 -5.26832,6.190276 -2.107328,1.580496 -5.92686,2.107328 l -3.951239,0.526832 -8.429312,-1.97562 -9.482975,-2.239036 M 36.08799,8.5610196 q -5.400028,0 -10.931763,2.8975754 -5.400028,2.897576 -9.21956,7.639064 -4.082948,5.004904 -5.400028,10.931764 -1.5804954,6.190275 0.131708,12.248843 l 0.526832,-1.053664 q 3.819532,-5.531736 9.746392,-8.824436 l 1.053664,-0.395124 q 4.214656,-2.107327 10.009807,-2.107327 l 8.297604,1.975619 q 5.26832,2.107328 7.770772,2.107328 4.873195,0 7.902479,-2.765868 1.448788,-1.448787 2.370744,-3.687823 l 0.263416,-0.395124 q 0.921956,-3.2927 0.263416,-6.321984 v -0.65854 L 58.610057,19.756199 Q 56.897853,15.278127 52.946613,12.907383 47.810002,9.4829755 38.853858,8.8244356 L 36.08799,8.5610196 M 49.390498,43.99047 q 9.614683,0 14.883003,-9.351268 3.424408,-6.321983 5.26832,-17.648871 4.346363,3.95124 7.243939,11.326888 2.765868,7.112231 2.765868,14.092755 0,17.122039 -12.248843,28.317218 -5.400028,4.873196 -11.985428,7.375648 -6.453691,2.63416 -12.775675,2.63416 -8.165896,0 -14.751295,-2.502452 -2.765868,-0.65854 -5.004904,-2.239036 -4.346364,-2.897576 -6.848816,-6.717107 -2.239036,-3.556116 -2.239036,-7.112232 l 0.526832,-7.375648 2.239036,-6.190275 5.26832,-6.453692 q 2.107328,-1.31708 5.92686,-2.107328 l 3.819531,-0.395124 q 4.082948,0.395124 8.429312,2.107328 l 9.482976,2.239036 m -5.92686,27.922094 q 5.531736,0 11.063471,-2.897575 5.26832,-2.765868 9.21956,-7.507356 3.95124,-4.873196 5.531736,-10.800056 1.448787,-6.321983 -0.131708,-12.380551 l -0.790248,1.053664 q -3.687824,5.531736 -9.614684,8.692728 l -1.053664,0.526832 q -4.214656,2.107327 -10.009807,2.107327 -2.897576,0 -8.165896,-1.975619 -5.531736,-1.97562 -7.90248,-1.97562 -4.873195,0 -7.902479,2.63416 l -2.502452,3.556115 -0.131708,0.65854 q -0.921956,3.160992 -0.395124,6.321984 l 0.131708,0.395124 v 0.263416 l 0.131708,0.395124 q 1.843912,4.214656 5.795152,6.848816 5.004903,3.292699 13.961047,3.951239 l 2.765868,0.131708"
     fill="#70c9d3"
     fill-rule="evenodd"
     stroke="none"
     id="path4"
     style="stroke-width:2.63416;fill:#000000" />
  <defs
     id="defs2">
    <g
       id="shape0"
       transform="translate(18,18)">
      <path
         d="m 12.75,-18 q 5.25,0 5.25,5.25 v 25.9 q -0.1,4.45 -4.25,4.95 l -1,-0.05 h -25.5 l -1.05,0.05 q -4.1,-0.5 -4.2,-4.95 v -25.9 q 0,-5.25 5.25,-5.25 h 25.5 m -16.4,16.8 3.6,0.85 3.2,0.75 1.5,-0.2 Q 6.1,0 6.9,-0.6 q 1.3,-1.15 2,-2.35 l 0.85,-2.35 0.2,-2.9 q 0,-1.3 -0.85,-2.65 -0.9,-1.5 -2.6,-2.55 L 4.55,-14.3 Q 2.1,-15.15 -1,-15.15 q -2.4,0 -4.9,0.95 -2.5,1 -4.55,2.85 -4.65,4.2 -4.65,10.7 0,2.65 1.05,5.35 1.1,2.8 2.8,4.3 0.65,-4.3 1.95,-6.65 2.05,-3.55 5.65,-3.55 m 2.25,-10.7 1.05,0.1 q 3.4,0.25 5.35,1.55 1.5,0.9 2.15,2.6 l 0.1,0.15 v 0.25 q 0.25,1.15 -0.1,2.4 l -0.1,0.15 q -0.35,0.85 -0.9,1.4 -1.15,1.05 -3,1.05 -0.95,0 -2.95,-0.8 L -2.95,-3.8 q -2.2,0 -3.8,0.8 l -0.4,0.15 q -2.25,1.25 -3.7,3.35 l -0.2,0.4 q -0.65,-2.3 -0.05,-4.65 0.5,-2.25 2.05,-4.15 1.45,-1.8 3.5,-2.9 2.1,-1.1 4.15,-1.1 M 3.65,1.55 0.05,0.7 Q -1.6,0.05 -3.15,-0.1 L -4.6,0.05 q -1.45,0.3 -2.25,0.8 l -2,2.45 -0.85,2.35 -0.2,2.8 q 0,1.35 0.85,2.7 0.95,1.45 2.6,2.55 0.85,0.6 1.9,0.85 2.5,0.95 5.6,0.95 2.4,0 4.85,-1 2.5,-0.95 4.55,-2.8 4.65,-4.25 4.65,-10.75 0,-2.65 -1.05,-5.35 -1.1,-2.8 -2.75,-4.3 -0.7,4.3 -2,6.7 -2,3.55 -5.65,3.55 M 1.4,12.15 0.35,12.1 q -3.4,-0.25 -5.3,-1.5 -1.5,-1 -2.2,-2.6 L -7.2,7.85 V 7.75 L -7.25,7.6 Q -7.45,6.4 -7.1,5.2 L -7.05,4.95 -6.1,3.6 q 1.15,-1 3,-1 0.9,0 3,0.75 2,0.75 3.1,0.75 2.2,0 3.8,-0.8 L 7.2,3.1 q 2.25,-1.2 3.65,-3.3 l 0.3,-0.4 q 0.6,2.3 0.05,4.7 -0.6,2.25 -2.1,4.1 -1.5,1.8 -3.5,2.85 -2.1,1.1 -4.2,1.1"
         fill="#2c5472"
         fill-rule="evenodd"
         stroke="none"
         id="path1" />
      <path
         d="m -3.65,-1.2 q -3.6,0 -5.65,3.55 -1.3,2.35 -1.95,6.65 -1.7,-1.5 -2.8,-4.3 -1.05,-2.7 -1.05,-5.35 0,-6.5 4.65,-10.7 2.05,-1.85 4.55,-2.85 2.5,-0.95 4.9,-0.95 3.1,0 5.55,0.85 l 1.95,0.9 q 1.7,1.05 2.6,2.55 0.85,1.35 0.85,2.65 L 9.75,-5.3 8.9,-2.95 Q 8.2,-1.75 6.9,-0.6 6.1,0 4.65,0.2 l -1.5,0.2 -3.2,-0.75 -3.6,-0.85 m 2.25,-10.7 q -2.05,0 -4.15,1.1 -2.05,1.1 -3.5,2.9 -1.55,1.9 -2.05,4.15 -0.6,2.35 0.05,4.65 l 0.2,-0.4 q 1.45,-2.1 3.7,-3.35 L -6.75,-3 q 1.6,-0.8 3.8,-0.8 l 3.15,0.75 q 2,0.8 2.95,0.8 1.85,0 3,-1.05 0.55,-0.55 0.9,-1.4 l 0.1,-0.15 Q 7.5,-6.1 7.25,-7.25 V -7.5 L 7.15,-7.65 Q 6.5,-9.35 5,-10.25 3.05,-11.55 -0.35,-11.8 L -1.4,-11.9 M 3.65,1.55 q 3.65,0 5.65,-3.55 1.3,-2.4 2,-6.7 1.65,1.5 2.75,4.3 1.05,2.7 1.05,5.35 0,6.5 -4.65,10.75 -2.05,1.85 -4.55,2.8 -2.45,1 -4.85,1 -3.1,0 -5.6,-0.95 Q -5.6,14.3 -6.45,13.7 -8.1,12.6 -9.05,11.15 -9.9,9.8 -9.9,8.45 l 0.2,-2.8 0.85,-2.35 2,-2.45 q 0.8,-0.5 2.25,-0.8 l 1.45,-0.15 q 1.55,0.15 3.2,0.8 l 3.6,0.85 M 1.4,12.15 q 2.1,0 4.2,-1.1 Q 7.6,10 9.1,8.2 10.6,6.35 11.2,4.1 11.75,1.7 11.15,-0.6 l -0.3,0.4 Q 9.45,1.9 7.2,3.1 L 6.8,3.3 Q 5.2,4.1 3,4.1 1.9,4.1 -0.1,3.35 -2.2,2.6 -3.1,2.6 q -1.85,0 -3,1 L -7.05,4.95 -7.1,5.2 q -0.35,1.2 -0.15,2.4 l 0.05,0.15 v 0.1 L -7.15,8 q 0.7,1.6 2.2,2.6 1.9,1.25 5.3,1.5 l 1.05,0.05"
         fill="#70c9d3"
         fill-rule="evenodd"
         stroke="none"
         id="path2" />
    </g>
  </defs>
</svg>
