<?xml version="1.0" encoding="UTF-8" standalone="no"?>
<svg xmlns="http://www.w3.org/2000/svg" xmlns:xlink="http://www.w3.org/1999/xlink" style="isolation:isolate" viewBox="1101.152 1156.851 64.191 62.411" width="64.191pt" height="62.411pt"><path d=" M 1159.898 1168.893 L 1163.667 1174.024 L 1163.877 1175.176 Q 1160.317 1178.318 1156.547 1178.737 L 1154.662 1178.737 L 1153.929 1178.737 L 1150.368 1178.632 L 1151.52 1174.443 L 1151.52 1174.129 L 1153.615 1165.333 L 1153.091 1164.809 L 1152.463 1163.971 L 1151.101 1161.563 L 1150.264 1161.039 L 1149.531 1160.725 L 1143.771 1158.421 L 1139.897 1157.27 L 1140.734 1157.27 L 1143.876 1158.003 L 1152.044 1159.888 L 1152.568 1160.097 L 1153.51 1161.039 L 1153.615 1161.144 L 1154.662 1162.296 L 1154.662 1162.401 L 1156.023 1163.971 L 1159.898 1168.893 L 1159.898 1168.893 Z  M 1165.029 1176.223 L 1165.133 1176.328 L 1165.238 1176.433 L 1165.238 1176.537 L 1165.133 1179.993 L 1165.343 1184.601 Q 1163.144 1187.952 1159.793 1191.826 L 1159.583 1192.14 L 1158.536 1193.292 L 1157.384 1194.863 L 1155.814 1196.329 L 1155.709 1196.434 L 1155.5 1196.434 L 1155.185 1196.852 L 1153.091 1196.643 L 1150.264 1196.538 L 1149.321 1195.596 Q 1147.332 1193.92 1144.295 1189.313 Q 1141.468 1185.02 1141.258 1183.135 L 1141.258 1183.03 L 1141.363 1182.925 L 1141.363 1182.82 L 1141.153 1182.611 L 1141.468 1181.564 L 1144.714 1181.459 L 1149.321 1181.669 L 1149.426 1181.669 L 1149.95 1181.145 L 1150.054 1181.04 L 1150.473 1179.47 L 1151.625 1179.365 L 1153.615 1179.365 L 1153.719 1179.365 L 1154.033 1179.365 L 1154.766 1179.365 Q 1161.992 1179.365 1165.029 1176.328 L 1165.029 1176.223 L 1165.029 1176.223 Z  M 1151.101 1162.82 L 1151.939 1164.495 L 1152.253 1165.228 L 1150.578 1173.082 L 1150.473 1173.501 L 1149.426 1176.956 L 1149.217 1177.375 Q 1148.484 1178.841 1147.332 1179.784 L 1146.913 1180.203 L 1140.734 1179.365 Q 1135.185 1178.318 1133.3 1177.48 L 1133.195 1177.375 L 1132.462 1176.119 L 1132.252 1175.281 L 1132.462 1171.092 Q 1132.881 1165.647 1134.033 1162.401 L 1134.137 1162.296 L 1134.87 1159.469 L 1135.185 1158.84 Q 1135.708 1157.688 1136.441 1157.793 L 1136.546 1157.688 L 1136.755 1157.479 L 1137.907 1157.479 L 1141.886 1158.736 L 1147.227 1160.516 L 1147.332 1160.516 L 1147.541 1160.621 L 1147.646 1160.725 L 1148.379 1161.039 L 1150.997 1162.715 L 1151.101 1162.82 L 1151.101 1162.82 Z  M 1138.954 1181.983 L 1138.326 1185.648 L 1138.221 1185.752 L 1134.556 1193.292 L 1134.452 1193.292 L 1134.347 1193.397 L 1133.928 1194.339 L 1133.719 1194.549 L 1133.404 1194.549 L 1133.3 1194.549 L 1132.776 1194.444 L 1132.567 1194.444 L 1132.043 1194.339 L 1126.388 1192.769 L 1121.781 1191.407 L 1120.524 1191.093 L 1120.419 1191.093 L 1119.791 1190.884 L 1119.477 1190.779 L 1119.372 1190.57 L 1119.372 1190.465 L 1118.953 1190.36 L 1118.744 1190.255 L 1118.535 1190.465 L 1118.43 1190.465 L 1116.126 1189.732 L 1115.917 1189.627 L 1115.917 1189.522 L 1115.812 1189.522 L 1115.288 1188.999 L 1114.765 1188.37 L 1114.555 1185.229 L 1114.555 1185.124 L 1114.555 1184.915 L 1114.451 1181.459 L 1115.393 1178.003 L 1115.812 1176.956 L 1115.812 1176.852 L 1117.383 1173.71 L 1117.383 1173.605 L 1117.592 1173.396 L 1117.802 1173.082 L 1118.325 1172.558 L 1118.43 1172.349 L 1118.43 1172.244 L 1119.372 1172.139 L 1120.105 1172.139 L 1120.21 1172.139 L 1120.419 1172.139 L 1120.524 1172.244 L 1120.734 1172.244 L 1121.048 1172.139 L 1121.885 1172.558 L 1122.723 1172.977 L 1123.142 1173.082 L 1123.247 1173.187 L 1123.352 1173.187 L 1123.456 1173.291 L 1130.158 1176.852 L 1130.158 1177.166 L 1130.577 1178.318 L 1130.682 1178.422 L 1130.786 1178.527 L 1133.09 1179.051 L 1138.745 1180.831 L 1139.059 1181.04 L 1139.059 1181.25 L 1138.954 1181.669 L 1138.954 1181.878 L 1138.954 1181.983 L 1138.954 1181.983 Z  M 1140.734 1185.752 L 1140.839 1185.752 L 1144.504 1191.302 Q 1148.274 1197.167 1149.531 1197.795 L 1149.74 1197.9 L 1149.845 1197.9 L 1156.023 1197.481 L 1156.128 1197.481 L 1152.672 1203.659 L 1148.588 1211.932 L 1146.075 1216.853 L 1145.97 1216.853 L 1145.866 1217.167 L 1145.133 1218.005 L 1142.096 1219.262 L 1136.86 1218.424 L 1135.394 1218.215 L 1132.148 1217.691 L 1130.263 1217.377 L 1129.216 1217.063 L 1133.195 1214.759 L 1133.404 1214.55 L 1133.509 1214.55 L 1134.347 1214.026 L 1134.452 1213.817 L 1134.347 1213.607 L 1134.033 1213.084 L 1134.137 1212.769 L 1134.033 1212.665 L 1134.033 1212.455 L 1133.719 1212.036 L 1133.195 1207.01 L 1133.195 1206.801 L 1133.195 1205.753 L 1133.3 1203.869 L 1133.404 1202.821 L 1133.823 1201.146 L 1133.928 1201.041 L 1134.137 1199.994 L 1134.452 1198.737 L 1135.08 1196.643 L 1135.08 1196.434 L 1135.08 1196.224 L 1135.08 1196.119 L 1135.289 1195.91 Q 1137.069 1190.151 1139.792 1185.962 L 1139.792 1185.857 L 1140.001 1185.334 L 1140.211 1185.334 L 1140.316 1185.543 L 1140.525 1185.752 L 1140.734 1185.752 L 1140.734 1185.752 Z  M 1128.692 1157.06 L 1128.901 1157.165 L 1129.949 1157.793 L 1130.891 1158.212 L 1131.205 1158.421 L 1132.881 1159.259 Q 1131.624 1161.772 1130.891 1167.218 L 1130.158 1175.281 L 1129.53 1174.967 L 1129.32 1174.967 L 1128.378 1174.653 L 1128.273 1174.653 L 1126.912 1174.024 L 1124.922 1172.977 L 1123.875 1172.453 L 1123.666 1172.349 L 1123.037 1171.93 L 1122.619 1171.721 L 1121.467 1171.092 L 1121.257 1171.092 L 1120.734 1170.987 L 1119.163 1170.673 L 1119.477 1169.94 L 1119.477 1169.836 L 1119.686 1169.207 L 1119.791 1168.893 L 1120.105 1168.474 L 1120.105 1168.265 L 1120.21 1168.16 L 1120.315 1168.16 L 1120.419 1168.055 L 1120.419 1167.951 L 1120.524 1167.741 L 1120.524 1167.637 L 1120.838 1165.752 L 1122.828 1162.61 L 1122.828 1162.505 L 1125.655 1158.317 L 1125.865 1158.212 L 1126.388 1157.898 L 1127.331 1157.165 L 1127.854 1156.851 L 1127.959 1156.851 L 1128.273 1156.955 L 1128.692 1157.06 L 1128.692 1157.06 Z  M 1122.2 1157.165 L 1122.304 1157.165 L 1123.142 1157.27 L 1124.399 1157.479 Q 1121.99 1160.83 1118.953 1167.637 L 1118.116 1169.626 L 1117.802 1169.417 L 1116.859 1166.485 L 1115.498 1162.82 L 1115.184 1161.772 L 1115.184 1161.668 L 1114.974 1161.039 L 1114.66 1160.306 L 1114.555 1159.783 L 1114.555 1159.678 L 1114.451 1159.469 L 1119.268 1157.793 L 1121.362 1157.27 L 1122.2 1157.165 L 1122.2 1157.165 Z  M 1110.576 1175.281 L 1112.67 1174.443 L 1113.403 1174.234 L 1113.403 1174.129 L 1116.126 1173.291 L 1116.44 1173.187 L 1116.336 1173.396 L 1116.126 1174.129 L 1114.555 1177.166 L 1113.822 1180.307 Q 1114.032 1185.438 1113.718 1187.847 L 1113.508 1189.313 L 1110.89 1186.695 L 1109.634 1184.496 L 1109.424 1184.182 L 1107.644 1180.726 L 1105.969 1177.689 L 1106.911 1177.166 L 1107.12 1177.166 L 1109.948 1175.49 L 1110.576 1175.281 L 1110.576 1175.281 Z  M 1101.78 1194.968 Q 1103.979 1193.606 1105.55 1192.978 L 1107.225 1192.35 L 1107.33 1192.245 L 1107.644 1192.14 L 1108.482 1192.036 L 1108.482 1191.931 L 1111.937 1190.674 L 1113.299 1190.465 Q 1113.194 1191.721 1112.775 1192.559 L 1112.67 1192.873 L 1112.566 1193.187 L 1111.937 1197.271 L 1111.519 1204.183 L 1111.414 1205.439 L 1111.519 1207.115 L 1111.623 1208.371 L 1111.414 1208.267 L 1111.204 1208.162 L 1110.89 1208.057 L 1107.958 1205.963 L 1106.597 1204.497 L 1106.073 1203.869 L 1105.55 1203.554 L 1104.293 1201.774 L 1104.084 1201.355 L 1103.874 1201.146 L 1103.351 1200.203 L 1103.351 1200.099 L 1102.303 1198.109 L 1101.152 1195.282 L 1101.78 1194.968 L 1101.78 1194.968 Z  M 1116.859 1191.093 L 1117.278 1191.302 L 1117.487 1191.302 L 1118.22 1191.302 L 1118.639 1191.407 L 1119.268 1191.721 L 1119.582 1192.036 L 1119.686 1192.036 L 1120.419 1192.245 L 1120.838 1192.454 L 1121.571 1192.664 L 1121.781 1192.873 L 1121.885 1192.978 L 1124.713 1193.711 L 1132.357 1195.91 L 1132.567 1196.119 L 1133.195 1196.748 L 1133.195 1197.062 L 1133.3 1197.481 L 1133.3 1197.585 L 1133.09 1199.47 L 1132.776 1200.518 L 1132.671 1201.46 L 1132.357 1203.135 L 1132.357 1203.24 L 1131.938 1205.439 L 1131.101 1207.743 L 1131.101 1207.848 L 1130.996 1208.057 L 1130.786 1208.371 L 1130.682 1209 L 1130.682 1209.209 L 1130.368 1209.733 L 1124.399 1209.837 L 1121.571 1209.628 L 1121.152 1209.628 L 1121.152 1209.418 L 1120.943 1209.314 L 1119.163 1209.104 L 1118.116 1208.895 L 1118.011 1208.895 L 1117.802 1208.895 L 1117.592 1208.895 L 1117.383 1208.79 L 1117.173 1208.79 L 1116.964 1208.79 L 1115.184 1208.267 L 1114.241 1208.162 L 1114.136 1208.162 L 1113.822 1208.057 L 1113.822 1207.952 L 1113.613 1207.848 L 1113.194 1207.429 L 1113.089 1207.429 L 1113.089 1207.324 Q 1112.147 1205.753 1113.089 1199.156 L 1113.194 1198.528 L 1113.194 1198.423 Q 1113.299 1195.177 1114.136 1193.292 L 1114.136 1193.187 L 1114.136 1192.664 L 1114.555 1191.826 L 1115.184 1191.721 L 1115.288 1191.721 L 1115.498 1191.512 L 1116.021 1191.093 L 1116.65 1191.093 L 1116.859 1191.093 L 1116.859 1191.093 Z  M 1132.462 1207.324 L 1132.881 1211.303 L 1132.881 1212.246 L 1132.985 1212.246 L 1133.09 1213.712 L 1132.567 1214.55 Q 1131.519 1215.702 1129.425 1216.33 L 1126.912 1216.958 L 1123.875 1216.225 L 1114.241 1213.293 L 1110.786 1211.827 L 1109.948 1211.513 L 1108.063 1210.047 L 1106.911 1208.79 L 1106.597 1207.324 L 1106.178 1205.963 L 1106.283 1205.753 L 1106.597 1205.858 L 1106.806 1205.963 Q 1107.12 1206.068 1107.644 1206.486 L 1110.471 1208.371 L 1111.309 1209 L 1111.728 1209.104 L 1112.147 1209.314 L 1113.508 1209.733 L 1113.927 1209.837 L 1123.666 1210.989 L 1131.205 1212.036 L 1132.043 1209.418 L 1131.624 1210.151 L 1131.519 1210.047 L 1132.148 1209.209 L 1132.148 1209.104 L 1132.252 1208.685 L 1132.357 1207.743 L 1132.357 1207.115 L 1132.357 1207.01 L 1132.462 1207.219 L 1132.462 1207.324 L 1132.462 1207.324 Z " fill-rule="evenodd" fill="rgb(0,0,0)"/></svg>
