<?xml version="1.0" encoding="UTF-8" standalone="no"?>
<svg xmlns="http://www.w3.org/2000/svg" xmlns:xlink="http://www.w3.org/1999/xlink" style="isolation:isolate" viewBox="843.782 1154.442 66.809 67.228" width="66.809pt" height="67.228pt"><path d=" M 883.993 1154.442 L 888.706 1154.442 L 857.5 1187.952 L 854.987 1185.648 L 883.993 1154.442 L 883.993 1154.442 Z  M 910.591 1169.626 L 910.591 1176.119 L 880.014 1208.895 L 876.768 1205.963 L 910.591 1169.626 L 910.591 1169.626 Z  M 903.785 1154.442 Q 910.591 1154.442 910.591 1161.249 L 910.591 1167.637 L 875.825 1205.02 L 858.442 1188.894 L 890.486 1154.442 L 903.785 1154.442 L 903.785 1154.442 Z  M 852.788 1186.381 L 856.557 1189.836 L 856.662 1189.836 L 879.072 1210.885 L 879.386 1210.989 L 879.386 1211.094 L 882.213 1213.607 L 882.004 1214.654 L 872.056 1216.749 L 863.155 1208.476 L 863.155 1208.371 L 862.945 1208.267 L 861.165 1206.486 L 860.956 1206.277 L 860.432 1205.858 L 860.223 1205.544 L 859.49 1205.125 L 859.385 1204.916 L 856.557 1202.298 L 856.557 1202.088 L 856.348 1202.088 L 847.761 1194.025 L 849.332 1184.391 L 849.332 1183.868 L 849.96 1183.658 L 852.683 1186.171 L 852.788 1186.381 L 852.788 1186.381 Z  M 858.128 1206.591 L 858.966 1207.219 L 858.966 1207.115 L 859.28 1207.534 L 859.28 1207.638 L 859.699 1207.848 L 859.908 1208.267 L 861.06 1209.209 L 857.5 1212.874 L 857.605 1212.979 L 849.541 1221.566 L 848.494 1221.67 Q 844.62 1220.937 843.782 1217.377 L 850.379 1210.256 L 850.274 1210.151 L 855.72 1204.287 L 857.919 1206.277 L 858.128 1206.591 L 858.128 1206.591 Z " fill-rule="evenodd" fill="rgb(0,0,0)"/></svg>
