<?xml version="1.0" encoding="UTF-8" standalone="no"?>
<svg xmlns="http://www.w3.org/2000/svg" xmlns:xlink="http://www.w3.org/1999/xlink" style="isolation:isolate" viewBox="457.086 1151.95 72.019 72.213" width="72.019pt" height="72.213pt"><path d=" M 512.586 1168.977 L 512.9 1169.605 L 512.691 1169.5 L 513.214 1171.595 L 513.529 1173.166 L 514.157 1175.574 L 514.366 1176.307 L 514.471 1176.307 L 514.471 1176.831 Q 514.995 1178.506 518.45 1181.857 L 524.524 1187.931 L 526.513 1189.816 Q 529.969 1192.224 528.817 1194.842 L 528.608 1195.156 L 523.896 1199.764 L 521.068 1202.696 L 520.44 1203.324 L 515.728 1208.036 L 515.518 1208.246 L 515.309 1208.246 Q 513.11 1209.188 510.596 1205.732 L 508.712 1203.848 L 504.942 1200.078 L 504.209 1199.764 L 503.266 1199.554 L 502.533 1199.24 L 502.324 1199.24 L 499.915 1198.402 L 498.135 1199.031 L 497.402 1199.345 L 497.088 1199.659 L 496.46 1200.287 L 496.355 1200.392 L 492.69 1204.057 L 492.271 1204.266 L 492.062 1204.476 L 490.91 1204.581 L 490.281 1204.476 L 490.281 1204.581 L 488.711 1205.418 L 487.768 1206.151 L 487.245 1206.78 L 484.627 1208.35 Q 481.904 1209.293 480.019 1207.722 L 480.019 1207.617 L 479.81 1207.827 L 479.705 1207.722 L 479.6 1207.827 L 479.391 1208.036 L 469.548 1218.089 L 464.102 1223.534 L 463.474 1224.163 L 457.086 1217.775 L 457.715 1217.147 L 463.16 1211.701 L 473.108 1201.753 L 473.317 1201.544 L 473.422 1201.439 L 473.632 1201.334 L 473.422 1201.125 Q 471.851 1199.24 472.794 1196.517 L 474.365 1193.899 L 474.993 1193.376 L 475.202 1193.062 L 475.621 1192.643 L 476.564 1190.863 L 476.564 1190.653 L 476.564 1190.234 L 476.668 1189.083 L 476.878 1188.873 L 477.087 1188.454 L 480.648 1184.789 L 480.857 1184.37 L 481.171 1184.056 L 481.276 1184.056 L 481.695 1183.533 L 482.009 1182.799 L 482.114 1182.276 L 482.114 1181.857 L 482.428 1180.391 L 481.799 1178.611 L 481.799 1178.401 L 481.171 1176.831 L 481.171 1176.412 L 481.066 1176.202 L 480.438 1175.574 L 479.81 1174.946 L 477.192 1172.328 L 475.307 1170.443 Q 471.956 1168.034 472.689 1165.835 L 480.648 1157.877 L 486.512 1152.118 Q 488.92 1151.28 491.224 1154.631 L 493.004 1156.411 L 499.182 1162.589 Q 501.905 1165.417 503.581 1166.254 L 510.178 1167.93 L 511.434 1168.349 L 511.434 1168.139 L 512.272 1168.558 L 512.377 1168.558 L 512.586 1168.977 Z " fill="rgb(0,0,0)"/></svg>
