<?xml version="1.0" encoding="UTF-8" standalone="no"?>
<svg xmlns="http://www.w3.org/2000/svg" xmlns:xlink="http://www.w3.org/1999/xlink" style="isolation:isolate" viewBox="75.705 1156.38 66.6 63.354" width="66.6pt" height="63.354pt"><path d=" M 131.414 1193.868 L 133.09 1194.601 L 133.613 1195.02 Q 136.755 1195.439 139.373 1192.716 L 139.896 1192.716 L 140.629 1193.344 L 141.886 1196.067 Q 142.514 1197.952 142.2 1200.884 L 141.258 1205.073 L 141.258 1205.282 L 141.048 1205.701 L 141.048 1205.806 L 140.629 1207.062 L 140.734 1207.062 L 140.629 1207.167 L 139.582 1206.748 Q 136.755 1205.282 135.079 1205.177 L 133.927 1205.177 Q 129.006 1205.177 126.807 1208.528 Q 125.445 1210.623 125.445 1213.241 L 125.655 1215.335 L 125.655 1215.649 L 126.178 1217.429 L 126.283 1217.848 L 126.493 1218.686 L 124.922 1219 L 124.817 1219 L 124.398 1219.209 L 124.189 1219.209 L 119.895 1219.733 Q 116.963 1219.733 115.183 1218.895 L 112.565 1217.429 L 112.042 1216.696 L 112.146 1216.173 Q 115.183 1213.555 114.869 1210.413 L 114.66 1209.157 L 114.031 1207.586 L 113.822 1207.377 L 112.67 1204.863 L 112.146 1203.921 L 111.309 1202.978 L 111.413 1202.978 L 110.157 1201.408 Q 112.879 1198.476 122.723 1184.234 L 127.226 1189.679 L 128.692 1191.46 L 128.796 1191.564 L 129.634 1192.297 L 131.309 1193.659 L 131.414 1193.868 L 131.414 1193.868 L 131.414 1193.868 Z  M 132.042 1158.16 L 131.728 1159.521 Q 131.205 1164.862 127.854 1172.087 L 124.608 1178.161 L 123.456 1180.045 L 123.351 1180.255 L 120.733 1183.606 L 116.544 1189.679 L 112.775 1195.125 L 112.042 1196.067 L 109.11 1200.046 L 109.005 1199.942 L 106.701 1202.978 L 105.863 1203.921 L 105.34 1204.863 L 104.188 1207.377 L 103.978 1207.586 L 103.35 1209.157 L 103.141 1210.413 Q 102.827 1213.555 105.863 1216.173 L 105.968 1216.696 L 105.444 1217.429 L 102.827 1218.895 L 98.114 1219.733 L 93.821 1219.209 L 93.611 1219.209 L 93.193 1219 L 93.088 1219 L 91.517 1218.686 L 91.727 1217.848 L 91.831 1217.429 L 92.355 1215.649 L 92.355 1215.335 L 92.564 1213.241 Q 92.564 1210.623 91.203 1208.528 Q 89.004 1205.177 84.082 1205.177 L 82.93 1205.177 Q 81.255 1205.282 78.428 1206.748 L 77.38 1207.167 L 77.276 1207.062 L 77.38 1207.062 L 76.962 1205.806 L 76.962 1205.701 L 76.752 1205.282 L 76.752 1205.073 L 75.81 1200.884 Q 75.496 1197.952 76.124 1196.067 L 77.38 1193.344 L 78.113 1192.716 L 78.637 1192.716 Q 81.255 1195.439 84.396 1195.02 L 84.92 1194.601 L 86.595 1193.868 L 86.7 1193.659 L 88.376 1192.297 L 89.318 1191.46 L 90.784 1189.679 L 95.392 1184.129 L 96.544 1182.978 L 99.161 1180.045 L 101.361 1177.532 L 105.235 1173.239 L 105.759 1172.715 L 105.863 1172.611 L 105.968 1172.401 L 109.005 1169.05 L 109.005 1169.155 L 109.633 1168.422 L 111.204 1166.851 Q 113.927 1164.338 116.859 1162.558 Q 123.246 1157.95 128.692 1156.903 L 128.901 1156.798 L 131.1 1156.38 L 131.309 1156.38 L 132.147 1156.38 L 132.147 1156.589 L 132.042 1158.16 L 132.042 1158.16 L 132.042 1158.16 Z  M 105.444 1170.097 L 102.198 1173.448 L 95.496 1181.302 L 94.554 1180.045 L 93.402 1178.161 L 90.156 1172.087 Q 86.805 1164.862 86.281 1159.521 L 85.967 1158.16 L 85.862 1156.589 L 85.862 1156.38 L 87.224 1156.38 L 87.852 1156.484 L 89.109 1156.798 L 89.213 1156.798 L 89.318 1156.903 Q 94.763 1157.95 101.151 1162.558 Q 104.083 1164.338 106.806 1166.851 L 107.539 1167.584 L 106.596 1168.841 L 105.444 1170.097 L 105.444 1170.097 Z " fill-rule="evenodd" fill="rgb(0,0,0)"/></svg>
