<?xml version="1.0" encoding="UTF-8" standalone="no"?>
<svg xmlns="http://www.w3.org/2000/svg" xmlns:xlink="http://www.w3.org/1999/xlink" style="isolation:isolate" viewBox="718.88 1157.875 60.552 60.362" width="60.552pt" height="60.362pt"><path d=" M 776.082 1174.256 L 775.872 1174.466 Q 765.505 1182.529 750.95 1188.079 Q 734.509 1194.362 719.849 1194.676 L 719.535 1194.676 Q 718.487 1189.964 719.116 1185.252 L 719.325 1183.262 L 720.163 1179.806 L 720.791 1177.817 L 721.524 1176.037 L 721.524 1175.932 L 721.629 1175.722 L 721.943 1175.199 L 722.048 1174.885 L 722.153 1174.675 L 722.467 1174.256 L 722.99 1173 L 722.99 1172.895 L 723.304 1172.581 L 724.77 1170.382 L 724.666 1170.487 Q 729.797 1163.261 738.384 1160.015 Q 748.332 1156.14 757.966 1159.282 L 760.374 1160.12 L 760.479 1160.12 L 760.793 1160.224 L 761.526 1160.643 Q 771.369 1165.041 776.082 1174.256 L 776.082 1174.256 L 776.082 1174.256 Z  M 779.328 1184.204 L 779.433 1185.88 L 779.328 1192.582 L 778.909 1194.99 L 776.815 1200.645 L 776.815 1200.75 L 775.244 1203.891 L 775.139 1203.996 L 774.72 1204.729 L 773.568 1206.404 Q 768.647 1213.316 760.06 1216.667 L 757.966 1217.4 L 757.128 1217.818 L 754.719 1218.237 L 741.316 1217.609 L 739.221 1216.876 L 736.813 1215.934 L 729.797 1211.64 Q 726.132 1208.603 723.409 1204.415 Q 738.174 1203.891 754.51 1197.608 Q 768.856 1192.163 779.328 1184.204 L 779.328 1184.204 L 779.328 1184.204 Z  M 776.605 1179.702 L 777.129 1181.272 Q 767.076 1188.812 753.253 1194.153 Q 737.441 1200.226 723.304 1200.645 L 722.571 1199.179 L 722.571 1199.074 L 722.362 1198.551 L 722.257 1198.341 Q 736.394 1197.608 752.206 1191.535 Q 766.029 1186.194 776.186 1178.654 L 776.605 1179.702 L 776.605 1179.702 Z " fill-rule="evenodd" fill="rgb(0,0,0)"/></svg>
