<?xml version="1.0" encoding="UTF-8" standalone="no"?>
<svg xmlns="http://www.w3.org/2000/svg" xmlns:xlink="http://www.w3.org/1999/xlink" style="isolation:isolate" viewBox="204.992 1155.075 64.087 65.963" width="64.087pt" height="65.963pt"><path d=" M 263.319 1158.426 L 269.078 1172.981 L 268.555 1176.227 L 266.461 1181.044 L 264.366 1182.825 L 250.229 1188.06 L 246.46 1189.526 L 246.041 1189.945 L 243.528 1192.04 L 242.166 1193.61 L 241.852 1194.134 L 240.91 1195.914 L 238.606 1199.579 L 236.197 1202.721 L 233.475 1202.616 L 232.846 1202.721 L 228.448 1203.558 Q 226.982 1204.082 225.621 1206.176 L 225.097 1207.014 L 224.469 1210.156 L 225.202 1216.02 Q 225.621 1218.533 224.574 1218.952 L 222.48 1220.418 Q 218.396 1221.989 215.464 1219.58 L 214.102 1218.219 L 213.893 1218.114 L 212.846 1216.543 L 212.741 1216.229 Q 211.275 1212.459 211.589 1209.213 L 212.531 1200.208 L 213.474 1192.773 L 213.474 1191.516 L 213.474 1189.003 Q 213.579 1186.699 213.369 1185.861 L 213.264 1185.442 Q 212.531 1183.558 209.704 1182.406 L 207.191 1181.673 L 207.086 1181.673 L 206.039 1181.359 L 205.934 1181.254 L 205.306 1181.044 L 205.097 1180.73 L 204.992 1180.521 L 205.306 1179.474 L 207.4 1175.076 L 207.714 1174.761 L 209.076 1173.295 Q 210.123 1172.877 211.065 1172.039 L 212.217 1171.62 L 213.369 1170.992 L 214.102 1170.782 L 254.523 1155.075 L 256.512 1155.075 L 257.141 1155.075 Q 259.654 1155.598 261.853 1157.064 L 263.319 1158.426 L 263.319 1158.426 Z  M 230.124 1193.506 L 231.276 1194.972 L 232.323 1196.019 Q 232.951 1197.59 231.59 1198.113 L 231.171 1198.218 Q 229.391 1198.742 227.296 1196.961 L 224.469 1195.286 L 224.26 1195.6 L 224.26 1196.019 L 224.26 1196.228 L 224.993 1197.485 L 225.516 1198.008 L 226.145 1198.742 L 226.354 1199.056 L 226.563 1199.056 L 231.485 1199.16 L 231.695 1199.16 Q 235.15 1197.799 235.569 1194.867 Q 235.674 1193.506 235.15 1192.04 L 233.265 1190.05 L 232.637 1189.631 L 231.799 1189.736 L 231.276 1190.155 L 230.019 1191.307 L 229.81 1192.563 L 230.124 1193.506 L 230.124 1193.506 Z " fill-rule="evenodd" fill="rgb(0,0,0)"/></svg>
