<?xml version="1.0" encoding="UTF-8" standalone="no"?>
<svg xmlns="http://www.w3.org/2000/svg" xmlns:xlink="http://www.w3.org/1999/xlink" style="isolation:isolate" viewBox="-52.901 1154.128 67.752 67.856" width="67.752pt" height="67.856pt"><path d=" M 14.85 1154.442 L 14.746 1155.071 L 11.185 1160.621 L 9.719 1162.82 L 8.148 1164.704 L 7.939 1165.019 L 7.73 1165.019 L 6.892 1165.228 L 6.473 1165.437 L 6.264 1165.437 L 5.74 1165.542 L 5.426 1165.752 L 3.75 1166.066 L -1.904 1167.008 L -2.742 1167.008 L 8.358 1158.421 L 8.358 1158.317 L 8.463 1158.212 L 8.567 1158.212 L 9.405 1157.584 L 9.51 1157.479 L 9.824 1157.374 L 10.766 1156.641 L 12.232 1155.594 L 14.327 1154.128 L 14.85 1154.128 L 14.85 1154.442 L 14.85 1154.442 L 14.85 1154.442 L 14.85 1154.442 Z  M -48.189 1194.863 L -48.084 1194.863 L -46.095 1194.758 L -45.885 1194.758 L -45.362 1194.968 L -44.524 1195.072 L -44.315 1195.282 L -43.686 1195.072 Q -42.325 1194.549 -41.906 1195.072 L -41.382 1195.701 L -40.126 1195.072 L -40.021 1195.072 L -39.498 1194.968 L -39.393 1194.863 L -39.079 1194.863 L -38.869 1194.863 L -38.45 1194.863 L -38.241 1194.863 L -37.927 1194.863 L -37.194 1194.968 L -37.089 1194.968 L -33.11 1196.015 L -32.691 1196.119 L -30.492 1196.643 L -30.073 1196.748 L -28.712 1197.062 L -27.35 1197.167 L -25.361 1197.376 L -24 1197.376 L -21.8 1197.271 L -21.382 1197.167 L -20.649 1196.957 L -20.544 1196.957 L -19.287 1196.643 L -18.45 1196.538 L -18.24 1196.329 L -18.135 1196.329 L -17.926 1196.224 L -16.983 1196.015 L -16.669 1196.015 L -16.46 1196.015 L -16.25 1196.015 L -16.041 1196.224 L -15.832 1196.329 L -25.047 1208.371 L -25.361 1208.79 L -25.78 1209.418 L -26.408 1210.361 L -26.513 1210.466 L -26.094 1210.885 Q -25.57 1211.303 -26.094 1212.769 L -26.303 1213.293 L -26.094 1213.502 L -25.989 1214.34 L -25.884 1214.759 L -25.78 1215.073 L -25.884 1217.063 L -25.884 1217.167 L -28.921 1218.005 L -31.644 1217.901 L -32.063 1217.586 L -33.843 1218.005 L -33.948 1218.11 Q -33.633 1218.634 -34.157 1218.948 L -36.042 1219.262 L -36.356 1219.262 L -39.079 1218.843 L -40.335 1218.215 L -41.382 1217.586 L -42.22 1216.958 L -42.325 1216.958 L -43.163 1216.958 L -44.524 1217.691 L -45.466 1218.215 L -45.99 1218.634 L -46.095 1218.738 L -47.037 1219.576 L -47.142 1219.681 L -49.341 1221.984 L -52.901 1218.424 L -50.598 1216.12 L -49.76 1215.387 L -49.655 1215.178 L -49.55 1215.073 L -49.236 1214.445 L -47.875 1211.722 L -47.98 1211.303 L -48.084 1211.303 L -48.084 1211.199 L -48.608 1210.361 L -49.236 1209.418 L -49.969 1208.057 L -50.388 1205.335 L -50.388 1205.02 L -49.969 1203.031 L -49.236 1202.926 L -49.236 1202.717 L -49.131 1202.717 L -49.027 1202.088 L -48.608 1201.041 L -48.922 1200.622 L -49.027 1197.795 L -48.189 1194.863 L -48.189 1194.863 L -48.189 1194.863 L -48.189 1194.863 Z  M -3.58 1180.203 L -3.475 1180.307 L -12.585 1192.14 L -14.575 1193.711 L -15.622 1194.339 L -15.727 1194.339 L -16.041 1194.444 L -16.669 1194.653 L -18.554 1195.072 L -19.183 1195.072 L -24.209 1195.282 L -27.56 1194.968 L -31.539 1194.339 L -31.644 1194.339 L -32.063 1194.339 L -33.319 1194.025 L -33.633 1194.025 L -34.157 1193.92 L -35.099 1193.816 L -35.204 1193.92 L -35.623 1193.92 L -36.147 1193.92 L -36.461 1193.92 L -36.88 1194.025 L -37.403 1193.606 L -37.508 1193.502 L -37.508 1193.397 L -37.613 1193.083 L -22.848 1181.773 L -22.429 1181.669 L -21.905 1181.564 L -21.382 1181.459 L -21.277 1181.459 L -20.753 1181.459 L -20.125 1181.459 L -20.02 1181.354 L -19.811 1181.354 L -18.973 1181.354 L -13.633 1181.669 L -12.69 1181.564 L -12.376 1181.564 L -5.988 1180.517 L -5.674 1180.412 L -5.465 1180.307 L -5.255 1180.203 L -5.151 1180.203 L -4.732 1179.993 L -4.522 1179.993 L -4.417 1179.993 L -4.208 1179.993 L -3.999 1179.993 L -3.789 1179.993 L -3.58 1180.203 L -3.58 1180.203 L -3.58 1180.203 Z  M -4.417 1168.998 L -3.894 1168.998 L -0.857 1168.998 L 2.808 1168.474 L 3.332 1168.37 L 3.96 1168.16 L 5.112 1167.532 L 5.321 1167.427 L 5.635 1167.322 L 5.949 1167.322 L 6.159 1167.322 L 6.264 1167.637 L -0.334 1176.223 L -1.067 1176.747 L -2.218 1177.375 L -2.847 1177.689 L -3.37 1177.899 L -3.684 1178.108 Q -7.245 1179.679 -10.805 1179.888 L -15.517 1179.993 L -16.669 1180.098 L -17.926 1180.098 L -18.031 1180.098 L -18.659 1180.203 L -19.392 1180.412 L -20.23 1180.412 L -20.334 1180.307 L -20.544 1180.098 L -20.544 1179.993 L -20.125 1179.679 L -14.261 1175.176 L -13.423 1174.443 L -13.109 1174.234 L -8.397 1170.673 L -8.083 1170.464 L -7.664 1170.254 L -7.035 1169.626 L -6.931 1169.626 L -7.035 1169.731 L -6.721 1169.521 L -5.884 1169.207 L -5.779 1169.207 L -5.569 1169.103 L -5.255 1169.103 L -4.941 1169.103 L -4.417 1168.998 L -4.417 1168.998 Z " fill-rule="evenodd" fill="rgb(0,0,0)"/></svg>
