<?xml version="1.0" encoding="UTF-8" standalone="no"?>
<svg xmlns="http://www.w3.org/2000/svg" xmlns:xlink="http://www.w3.org/1999/xlink" style="isolation:isolate" viewBox="-311.318 1153.919 72.464 68.275" width="72.464pt" height="68.275pt"><path d=" M -248.174 1167.322 L -255.609 1166.275 L -258.541 1166.38 L -265.033 1167.637 Q -275.086 1172.768 -285.558 1186.8 L -285.767 1186.904 L -285.977 1187.219 L -299.904 1172.872 Q -291.841 1161.982 -278.856 1156.013 L -278.123 1155.804 L -273.829 1154.756 L -263.463 1153.919 L -254.352 1155.594 Q -249.64 1156.851 -245.556 1159.678 Q -241.367 1162.715 -239.797 1167.532 L -238.854 1173.396 Q -242.729 1169.417 -248.174 1167.322 L -248.174 1167.322 L -248.174 1167.322 L -248.174 1167.322 Z  M -301.789 1173.396 L -301.684 1173.291 L -301.475 1173.187 L -299.904 1174.757 L -287.966 1187.637 L -286.291 1189.418 L -285.977 1189.627 L -286.081 1189.627 L -285.453 1190.151 L -285.453 1190.36 L -285.453 1190.57 L -286.395 1191.407 L -287.024 1191.826 L -287.338 1192.245 Q -291.631 1196.119 -292.364 1197.585 L -292.678 1197.167 L -292.783 1197.271 L -293.097 1196.957 L -305.977 1179.365 L -306.187 1178.737 L -305.977 1178.213 L -301.789 1173.396 L -301.789 1173.396 L -301.789 1173.396 L -301.789 1173.396 Z  M -306.606 1180.831 L -294.354 1198.004 L -294.145 1198.528 L -296.344 1203.135 L -297.286 1205.439 L -298.543 1207.638 L -300.218 1202.298 Q -304.616 1195.282 -311.318 1193.083 L -311.318 1185.229 L -308.91 1183.239 L -306.606 1180.831 L -306.606 1180.831 L -306.606 1180.831 Z  M -284.929 1191.931 L -284.196 1192.769 L -284.092 1192.873 L -283.254 1193.92 L -281.578 1195.805 L -277.495 1199.68 L -270.269 1207.429 Q -263.044 1216.33 -261.054 1222.194 L -271.002 1222.194 Q -271.63 1219.681 -273.515 1216.644 L -277.913 1210.151 Q -281.578 1204.601 -288.909 1198.423 L -289.223 1198.319 L -290.165 1197.481 L -285.244 1192.245 L -284.929 1191.931 L -284.929 1191.931 Z " fill-rule="evenodd" fill="rgb(0,0,0)"/></svg>
