<?xml version="1.0" encoding="UTF-8" standalone="no"?>
<svg xmlns="http://www.w3.org/2000/svg" xmlns:xlink="http://www.w3.org/1999/xlink" style="isolation:isolate" viewBox="-180.827 1154.652 67.542 66.809" width="67.542pt" height="66.809pt"><path d=" M -113.285 1154.652 L -115.379 1160.621 L -119.254 1171.302 L -120.824 1174.129 L -126.06 1183.344 L -127.212 1185.229 L -128.573 1186.8 Q -129.725 1187.847 -134.019 1194.339 L -138.312 1200.622 L -141.768 1200.727 Q -150.564 1199.47 -154.752 1203.554 L -155.59 1204.601 Q -158.836 1206.486 -161.873 1209.523 L -162.083 1209.523 L -162.501 1209.418 L -165.957 1212.874 L -168.156 1215.073 L -174.649 1221.461 L -180.827 1215.283 L -174.439 1208.895 L -172.24 1206.591 L -168.784 1203.24 L -167.842 1202.298 L -167.633 1201.46 L -167.423 1201.251 L -166.271 1199.889 Q -161.35 1194.968 -159.674 1188.37 L -159.36 1187.219 Q -159.884 1184.496 -159.046 1179.051 L -158.732 1178.841 L -158.732 1178.527 L -153.496 1174.967 L -147.003 1170.359 L -144.7 1168.998 L -133.809 1161.772 L -132.029 1160.725 Q -125.955 1157.688 -117.159 1155.489 L -113.285 1154.652 Z " fill="rgb(0,0,0)"/></svg>
