<?xml version="1.0" encoding="UTF-8" standalone="no"?>
<svg xmlns="http://www.w3.org/2000/svg" xmlns:xlink="http://www.w3.org/1999/xlink" style="isolation:isolate" viewBox="1358.064 1156.764 62.487 62.585" width="62.487pt" height="62.585pt"><path d=" M 1420.454 1158.817 L 1420.356 1159.209 L 1419.671 1161.36 Q 1418.987 1164.489 1416.933 1167.814 L 1414.195 1171.53 L 1410.968 1175.344 L 1410.577 1175.833 L 1387.597 1198.911 L 1387.499 1199.4 L 1387.401 1199.595 L 1392.682 1201.942 L 1395.517 1203.116 L 1396.593 1203.898 L 1396.398 1204.191 L 1396.3 1204.387 L 1396.104 1204.68 L 1396.006 1204.876 L 1391.704 1209.081 L 1390.921 1209.179 L 1389.063 1208.592 L 1386.619 1207.81 L 1386.423 1207.712 L 1384.467 1206.93 L 1382.414 1206.147 L 1381.729 1205.854 L 1381.24 1205.658 L 1379.089 1203.703 Q 1378.307 1203.8 1377.427 1204.583 L 1371.95 1210.157 L 1371.853 1210.157 L 1371.755 1210.254 Q 1369.701 1212.406 1369.897 1212.797 L 1370.972 1213.873 L 1370.972 1214.166 L 1370.972 1214.264 L 1370.777 1215.535 L 1369.701 1217.784 L 1368.332 1219.349 L 1367.452 1219.349 L 1366.474 1218.371 L 1366.083 1218.469 L 1364.812 1218.664 L 1364.323 1218.664 L 1364.029 1218.664 L 1361.878 1218.175 L 1360.313 1216.806 L 1359.14 1215.242 L 1358.749 1213.384 L 1358.749 1213.09 L 1358.749 1212.601 L 1358.944 1211.33 L 1359.14 1211.037 L 1358.162 1210.059 L 1358.064 1209.081 L 1359.727 1207.712 L 1361.976 1206.734 L 1363.149 1206.441 L 1363.345 1206.441 L 1363.54 1206.538 L 1364.225 1207.125 L 1364.518 1207.223 L 1364.812 1207.419 L 1364.91 1207.223 L 1365.007 1207.321 L 1365.203 1207.321 L 1365.398 1207.419 L 1365.594 1207.321 L 1365.692 1207.419 L 1374.102 1199.009 L 1374.102 1198.715 L 1373.906 1198.52 L 1371.853 1196.271 L 1371.559 1195.684 L 1371.364 1194.999 L 1370.581 1192.946 L 1369.701 1190.99 L 1369.603 1190.892 L 1369.701 1190.892 L 1368.821 1188.35 L 1368.234 1186.492 L 1368.332 1185.709 L 1372.537 1181.504 L 1372.733 1181.407 L 1373.124 1181.113 L 1373.222 1181.113 L 1373.613 1180.918 L 1374.395 1181.896 L 1375.471 1184.731 L 1377.818 1190.012 L 1378.111 1190.012 L 1378.6 1189.914 L 1401.58 1166.836 L 1402.069 1166.445 L 1405.981 1163.316 L 1409.599 1160.48 Q 1412.533 1158.72 1415.271 1158.035 L 1418.791 1157.057 L 1420.552 1156.764 L 1420.454 1158.817 Z " fill="rgb(0,0,0)"/></svg>
